<?xml version="1.0" encoding="UTF-8"?>
<svg width="400" height="300" viewBox="0 0 400 300" fill="none" xmlns="http://www.w3.org/2000/svg">
    <!-- Background -->
    <rect width="400" height="300" fill="#F5F7FA"/>
    
    <!-- Road -->
    <rect y="220" width="400" height="80" fill="#E4E7EC"/>
    
    <!-- Delivery Bike -->
    <!-- Frame -->
    <path d="M180 200 L220 200 L240 160 L200 160 Z" fill="#4CAF50"/>
    <path d="M160 200 L180 200 L200 160 L180 160 Z" fill="#4CAF50"/>
    
    <!-- Handlebars -->
    <path d="M240 160 C240 150 230 150 230 160" stroke="#333" stroke-width="3"/>
    
    <!-- Seat -->
    <rect x="175" y="155" width="20" height="5" fill="#333"/>
    
    <!-- Wheels -->
    <circle cx="160" cy="200" r="20" fill="#333"/>
    <circle cx="240" cy="200" r="20" fill="#333"/>
    <circle cx="160" cy="200" r="16" fill="#666"/>
    <circle cx="240" cy="200" r="16" fill="#666"/>
    
    <!-- Delivery Box -->
    <rect x="190" y="130" width="30" height="30" fill="#FFD700"/>
    <rect x="190" y="130" width="30" height="5" fill="#FFC107"/>
    
    <!-- Driver -->
    <circle cx="180" cy="140" r="10" fill="#795548"/> <!-- Head -->
    <rect x="175" y="150" width="10" height="15" fill="#795548"/> <!-- Body -->
    <path d="M175 160 L165 170 M185 160 L195 170" stroke="#795548" stroke-width="2"/> <!-- Arms -->
    
    <!-- Pedals and Chain -->
    <circle cx="200" cy="200" r="8" fill="#666"/>
    <path d="M200 192 L200 208" stroke="#666" stroke-width="2"/>
    <path d="M160 200 Q200 210 240 200" stroke="#666" stroke-width="1" fill="none"/>
</svg> 