<?xml version="1.0" encoding="UTF-8"?>
<svg width="300" height="200" viewBox="0 0 300 200" xmlns="http://www.w3.org/2000/svg">
    <!-- Background -->
    <rect width="300" height="200" fill="#F9F6EF" opacity="0.5"/>
    
    <!-- Food Container -->
    <g transform="translate(100, 50)">
        <!-- Container Base -->
        <path d="M20 80 L80 80 C90 80 100 70 100 60 L100 40 C100 30 90 20 80 20 L20 20 C10 20 0 30 0 40 L0 60 C0 70 10 80 20 80" fill="#006240"/>
        
        <!-- Container Lid -->
        <path d="M10 20 L90 20 L85 10 L15 10 Z" fill="#F7C400"/>
        
        <!-- Steam -->
        <path d="M30 0 Q40 -10 50 0 Q60 10 70 0" fill="none" stroke="#C1272D" stroke-width="3" stroke-linecap="round"/>
        
        <!-- Food Items -->
        <circle cx="30" cy="50" r="10" fill="#C1272D"/> <!-- Tomato -->
        <circle cx="50" cy="45" r="12" fill="#F7C400"/> <!-- Rice -->
        <path d="M60 55 Q70 45 80 55" fill="none" stroke="#006240" stroke-width="4"/> <!-- Leaf -->
    </g>
    
    <!-- Plate -->
    <circle cx="150" cy="140" r="40" fill="#FFF" stroke="#006240" stroke-width="3"/>
</svg> 