<svg width="124" height="30" viewBox="0 0 124 30" fill="none" xmlns="http://www.w3.org/2000/svg">
<path d="M122 9.07643C97.1824 7.15021 72.5782 3.55859 47.7153 2.75929C33.4237 2.29984 -9.31558 0.954902 4.83105 3.54893C28.0836 7.81267 52.1154 7.67567 75.5272 10.5429C84.5982 11.6539 93.5963 13.143 102.621 14.7168C106.094 15.3224 108.807 16.3458 103.249 15.9576C78.4451 14.225 53.7694 10.3744 28.9646 8.51241C26.3176 8.31371 18.4751 8.21686 21.0248 9.13283C30.3707 12.4903 40.3971 13.8131 49.9581 15.6756C61.4715 17.9185 73.1712 19.3192 84.5885 22.2748C88.6897 23.3365 94.1827 23.6677 98.001 25.8282C104.758 29.6513 83.2046 27.3 75.7963 27.1255C63.4671 26.835 51.1521 25.9401 38.8334 25.3206" stroke="#FFA500" stroke-width="3.41745" stroke-linecap="round"/>
</svg>
